<svg xmlns="http://www.w3.org/2000/svg" xmlns:xlink="http://www.w3.org/1999/xlink" xmlns:serif="http://www.serif.com/" viewBox="0 0 24 24" version="1.1" xml:space="preserve" x="0px" y="0px" fill-rule="evenodd" clip-rule="evenodd" stroke-linejoin="round" stroke-miterlimit="2"><g><path d="M12.75,19c-0,0.414 -0.336,0.75 -0.75,0.75c-0.414,-0 -0.75,-0.336 -0.75,-0.75l0,-3c-0,-0.414 0.336,-0.75 0.75,-0.75c0.414,-0 0.75,0.336 0.75,0.75l0,3Z"/><circle cx="14.25" cy="11.75" r="0.75"/><circle cx="9.75" cy="11.75" r="0.75"/><path d="M6.13,3.356c0.536,-0.943 1.55,-1.58 2.712,-1.58c0.429,0 0.837,0.087 1.208,0.244c0.511,-0.478 1.197,-0.77 1.95,-0.77c0.753,0 1.439,0.292 1.949,0.77c0.372,-0.157 0.78,-0.244 1.209,-0.244c1.162,0 2.176,0.637 2.712,1.58c1.539,0.043 2.775,1.306 2.775,2.855c-0,0.025 -0.001,0.051 -0.002,0.076c0.937,0.469 1.581,1.437 1.581,2.555c-0,0.425 -0.093,0.829 -0.26,1.191c0.487,0.512 0.786,1.205 0.786,1.967c0,0.762 -0.299,1.455 -0.786,1.967c0.167,0.362 0.26,0.766 0.26,1.191c-0,1.118 -0.644,2.086 -1.58,2.554c0,0.026 0.001,0.052 0.001,0.077c-0,1.549 -1.236,2.812 -2.775,2.855c-0.536,0.943 -1.55,1.58 -2.712,1.58c-0.429,-0 -0.837,-0.087 -1.208,-0.244c-0.511,0.478 -1.197,0.77 -1.95,0.77c-0.753,-0 -1.439,-0.292 -1.949,-0.77c-0.372,0.157 -0.78,0.244 -1.209,0.244c-1.162,-0 -2.176,-0.637 -2.712,-1.58c-1.539,-0.043 -2.775,-1.306 -2.775,-2.855c0,-0.025 0.001,-0.051 0.002,-0.076c-0.937,-0.469 -1.581,-1.437 -1.581,-2.555c0,-0.425 0.093,-0.829 0.26,-1.191c-0.487,-0.512 -0.786,-1.205 -0.786,-1.967c-0,-0.762 0.299,-1.455 0.786,-1.967c-0.167,-0.362 -0.26,-0.766 -0.26,-1.191c0,-1.118 0.644,-2.086 1.58,-2.554c-0,-0.026 -0.001,-0.052 -0.001,-0.077c0,-1.549 1.236,-2.812 2.775,-2.855Zm5.87,17.894c0.48,-0 0.902,-0.25 1.143,-0.627c0.111,-0.174 0.289,-0.294 0.491,-0.332c0.203,-0.039 0.412,0.008 0.579,0.128c0.266,0.192 0.592,0.305 0.945,0.305c0.713,-0 1.319,-0.463 1.535,-1.104c0.119,-0.354 0.48,-0.566 0.847,-0.498c0.081,0.015 0.164,0.023 0.249,0.023c0.748,-0 1.356,-0.608 1.356,-1.356c-0,-0.128 -0.018,-0.252 -0.051,-0.369c-0.057,-0.199 -0.028,-0.413 0.078,-0.591c0.107,-0.177 0.282,-0.303 0.485,-0.346c0.61,-0.133 1.067,-0.676 1.067,-1.325c-0,-0.332 -0.12,-0.636 -0.318,-0.871c-0.141,-0.168 -0.202,-0.389 -0.166,-0.606c0.036,-0.216 0.165,-0.406 0.353,-0.519c0.393,-0.238 0.657,-0.669 0.657,-1.162c-0,-0.493 -0.264,-0.924 -0.657,-1.162c-0.188,-0.113 -0.317,-0.303 -0.353,-0.519c-0.036,-0.217 0.025,-0.438 0.166,-0.606c0.198,-0.235 0.318,-0.539 0.318,-0.871c-0,-0.649 -0.457,-1.192 -1.067,-1.325c-0.203,-0.043 -0.378,-0.169 -0.485,-0.346c-0.106,-0.178 -0.135,-0.392 -0.078,-0.591c0.033,-0.117 0.051,-0.241 0.051,-0.369c-0,-0.748 -0.608,-1.356 -1.356,-1.356c-0.085,0 -0.168,0.008 -0.249,0.023c-0.367,0.068 -0.728,-0.144 -0.847,-0.498c-0.216,-0.641 -0.822,-1.104 -1.535,-1.104c-0.353,0 -0.679,0.113 -0.945,0.305c-0.167,0.12 -0.376,0.167 -0.579,0.128c-0.202,-0.038 -0.38,-0.158 -0.491,-0.332c-0.241,-0.377 -0.663,-0.627 -1.143,-0.627c-0.48,0 -0.902,0.25 -1.143,0.627c-0.111,0.174 -0.289,0.294 -0.491,0.332c-0.203,0.039 -0.412,-0.008 -0.579,-0.128c-0.266,-0.192 -0.592,-0.305 -0.945,-0.305c-0.713,0 -1.319,0.463 -1.535,1.104c-0.119,0.354 -0.48,0.566 -0.847,0.498c-0.081,-0.015 -0.164,-0.023 -0.249,-0.023c-0.748,0 -1.356,0.608 -1.356,1.356c0,0.128 0.018,0.252 0.051,0.369c0.057,0.199 0.028,0.413 -0.078,0.591c-0.107,0.177 -0.282,0.303 -0.485,0.346c-0.61,0.133 -1.067,0.676 -1.067,1.325c0,0.332 0.12,0.636 0.318,0.871c0.141,0.168 0.202,0.389 0.166,0.606c-0.036,0.216 -0.165,0.406 -0.353,0.519c-0.393,0.238 -0.657,0.669 -0.657,1.162c-0,0.493 0.264,0.924 0.657,1.162c0.188,0.113 0.317,0.303 0.353,0.519c0.036,0.217 -0.025,0.438 -0.166,0.606c-0.198,0.235 -0.318,0.539 -0.318,0.871c0,0.649 0.457,1.192 1.067,1.325c0.203,0.043 0.378,0.169 0.485,0.346c0.106,0.178 0.135,0.392 0.078,0.591c-0.033,0.117 -0.051,0.241 -0.051,0.369c0,0.748 0.608,1.356 1.356,1.356c0.085,-0 0.168,-0.008 0.249,-0.023c0.367,-0.068 0.728,0.144 0.847,0.498c0.216,0.641 0.822,1.104 1.535,1.104c0.353,-0 0.679,-0.113 0.945,-0.305c0.167,-0.12 0.376,-0.167 0.579,-0.128c0.202,0.038 0.38,0.158 0.491,0.332c0.241,0.377 0.663,0.627 1.143,0.627Z"/><path d="M8.214,7.281c-0,0 0.549,0.159 1.243,0.136c0.637,-0.021 1.418,-0.192 1.951,-0.877c0.142,-0.183 0.361,-0.29 0.592,-0.29c0.231,-0 0.45,0.107 0.592,0.29c0.533,0.685 1.314,0.856 1.951,0.877c0.694,0.023 1.243,-0.136 1.243,-0.136c0.395,-0.117 0.811,0.106 0.931,0.5c0,0 0.585,1.914 0.471,4.028c-0.076,1.41 -0.468,2.896 -1.469,4.02c-0.049,0.372 -0.174,1.052 -0.485,1.732c-0.504,1.105 -1.464,2.189 -3.234,2.189c-1.77,0 -2.73,-1.084 -3.234,-2.189c-0.311,-0.68 -0.437,-1.361 -0.485,-1.731c-1.001,-1.125 -1.393,-2.611 -1.469,-4.021c-0.114,-2.114 0.471,-4.028 0.471,-4.028c0.12,-0.394 0.536,-0.617 0.931,-0.5Zm0.343,1.588c-0.139,0.653 -0.308,1.723 -0.247,2.859c0.062,1.143 0.349,2.367 1.221,3.243c0.13,0.13 0.208,0.304 0.218,0.487c-0,0 0.043,0.74 0.381,1.481c0.295,0.645 0.835,1.311 1.87,1.311c1.035,0 1.575,-0.666 1.87,-1.311c0.338,-0.741 0.381,-1.481 0.381,-1.481c0.01,-0.183 0.088,-0.357 0.218,-0.487c0.872,-0.876 1.159,-2.1 1.221,-3.243c0.061,-1.136 -0.108,-2.206 -0.247,-2.859c-0.419,0.053 -0.971,0.081 -1.551,-0.008c-0.64,-0.097 -1.31,-0.331 -1.892,-0.798c-0.583,0.467 -1.252,0.701 -1.892,0.798c-0.58,0.089 -1.132,0.061 -1.551,0.008Z"/><path d="M16.109,8.742c-0.41,0.06 -0.791,-0.224 -0.851,-0.633c-0.06,-0.41 0.224,-0.791 0.633,-0.851c0,-0 1.798,-0.292 3.582,1.16c0.201,0.163 0.303,0.418 0.271,0.675c0,-0 -0.263,2.519 -3.209,2.656c-0.414,0.019 -0.765,-0.301 -0.784,-0.714c-0.019,-0.414 0.301,-0.765 0.714,-0.784c1.01,-0.047 1.46,-0.581 1.654,-0.962c-1.062,-0.663 -2.01,-0.547 -2.01,-0.547Z"/><path d="M8.109,7.258c0.409,0.06 0.693,0.441 0.633,0.851c-0.06,0.409 -0.441,0.693 -0.851,0.633c0,0 -0.948,-0.116 -2.01,0.548c0.194,0.38 0.644,0.914 1.654,0.961c0.413,0.019 0.733,0.37 0.714,0.784c-0.019,0.413 -0.37,0.733 -0.784,0.714c-2.946,-0.137 -3.209,-2.656 -3.209,-2.656c-0.032,-0.257 0.07,-0.512 0.271,-0.675c1.784,-1.452 3.582,-1.16 3.582,-1.16Z"/></g></svg>
